<svg width="45" height="45" viewBox="0 0 45 45" fill="none" xmlns="http://www.w3.org/2000/svg">
<g id="Group">
<path id="Vector" d="M44.1667 22.0833C44.1667 21.4976 43.934 20.936 43.5199 20.5218C43.1057 20.1077 42.544 19.875 41.9583 19.875C41.3727 19.875 40.811 20.1077 40.3968 20.5218C39.9827 20.936 39.75 21.4976 39.75 22.0833H44.1667ZM22.0833 4.41667C22.669 4.41667 23.2307 4.184 23.6449 3.76986C24.059 3.35572 24.2917 2.79402 24.2917 2.20833C24.2917 1.62265 24.059 1.06095 23.6449 0.646806C23.2307 0.232663 22.669 0 22.0833 0V4.41667ZM38.6458 39.75H5.52083V44.1667H38.6458V39.75ZM4.41667 38.6458V5.52083H0V38.6458H4.41667ZM39.75 22.0833V38.6458H44.1667V22.0833H39.75ZM5.52083 4.41667H22.0833V0H5.52083V4.41667ZM5.52083 39.75C5.22799 39.75 4.94714 39.6337 4.74007 39.4266C4.533 39.2195 4.41667 38.9387 4.41667 38.6458H0C0 40.1101 0.581658 41.5143 1.61701 42.5497C2.65237 43.585 4.05662 44.1667 5.52083 44.1667V39.75ZM38.6458 44.1667C40.1101 44.1667 41.5143 43.585 42.5497 42.5497C43.585 41.5143 44.1667 40.1101 44.1667 38.6458H39.75C39.75 38.9387 39.6337 39.2195 39.4266 39.4266C39.2195 39.6337 38.9387 39.75 38.6458 39.75V44.1667ZM4.41667 5.52083C4.41667 5.22799 4.533 4.94714 4.74007 4.74007C4.94714 4.533 5.22799 4.41667 5.52083 4.41667V0C4.05662 0 2.65237 0.581658 1.61701 1.61701C0.581658 2.65237 0 4.05662 0 5.52083H4.41667Z" fill="#AAA9A9"/>
<path id="Vector_2" d="M2.2085 34.2298L14.0154 23.4068C14.4133 23.042 14.9311 22.8357 15.4708 22.8268C16.0105 22.8178 16.5349 23.0069 16.9447 23.3582L30.9168 35.334M26.5002 29.8132L31.7703 24.543C32.1463 24.1668 32.6453 23.9389 33.1757 23.9012C33.7061 23.8635 34.2324 24.0184 34.6577 24.3376L41.9585 29.8132M28.7085 8.83398H41.9585M35.3335 2.20898V15.459" stroke="#AAA9A9" stroke-width="4.41667" stroke-linecap="round" stroke-linejoin="round"/>
</g>
</svg>
